<?xml version="1.0" encoding="UTF-8" standalone="no"?>
<!DOCTYPE svg PUBLIC "-//W3C//DTD SVG 1.1//EN" "http://www.w3.org/Graphics/SVG/1.1/DTD/svg11.dtd">
<svg width="100%" height="100%" viewBox="0 0 1182 1182" version="1.1" xmlns="http://www.w3.org/2000/svg" xmlns:xlink="http://www.w3.org/1999/xlink" xml:space="preserve" xmlns:serif="http://www.serif.com/" style="fill-rule:evenodd;clip-rule:evenodd;stroke-linejoin:round;">
    <g transform="matrix(0.9,0,0,0.9,32.4803,-1.73157)">
        <g transform="matrix(1.66667,0,0,1.66667,-413.386,-336.258)">
            <g id="path1" transform="matrix(4.66308,0,0,5.20833,-372.047,-1535.43)">
                <path d="M151.973,368.504L151.973,425.197L212.762,453.543L273.551,425.197L273.551,368.504L212.762,340.157L151.973,368.504Z" style="fill:white;fill-rule:nonzero;stroke:black;stroke-width:3.12px;"/>
            </g>
            <g id="path12" transform="matrix(4.66308,1.33597e-07,1.49218e-07,4.16667,-372.047,-1181.1)">
                <path d="M212.762,340.157L212.762,411.024" style="fill:none;fill-rule:nonzero;stroke:rgb(153,153,153);stroke-width:1.52px;stroke-linejoin:bevel;"/>
            </g>
            <g id="path10" transform="matrix(3.92947,-0.382089,-0.426767,4.98606,-46.6,-1365.93)">
                <path d="M288.749,432.283L212.762,396.85" style="fill:none;fill-rule:nonzero;stroke:rgb(153,153,153);stroke-width:1.52px;stroke-linejoin:bevel;"/>
            </g>
            <g id="path11" transform="matrix(3.92947,0.382089,0.426767,4.98606,-385.325,-1528.52)">
                <path d="M136.776,432.283L212.762,396.85" style="fill:none;fill-rule:nonzero;stroke:rgb(153,153,153);stroke-width:1.52px;stroke-linejoin:bevel;"/>
            </g>
            <g id="path13" serif:id="path1" transform="matrix(4.66308,0,0,5.20833,-372.047,-1535.43)">
                <path d="M151.973,368.504L151.973,425.197L212.762,453.543L273.551,425.197L273.551,368.504L212.762,340.157L151.973,368.504Z" style="fill:rgb(171,225,237);fill-opacity:0.5;fill-rule:nonzero;stroke:black;stroke-width:3.12px;"/>
            </g>
            <g id="path2" transform="matrix(4.66308,0,0,4.16667,-372.047,-1062.99)">
                <path d="M212.762,379.88L212.762,453.543" style="fill:none;fill-rule:nonzero;stroke:black;stroke-width:1.52px;stroke-linecap:round;stroke-linejoin:bevel;"/>
            </g>
        </g>
        <g transform="matrix(1.66667,0,0,1.66667,-413.386,-336.258)">
            <g id="path7" transform="matrix(4.66308,0,0,5.20833,-372.047,-1557.12)">
                <path d="M151.973,340.157L136.776,347.244L212.762,382.677L288.749,347.244L273.551,340.157L212.762,368.504L151.973,340.157" style="fill:rgb(152,108,224);fill-rule:nonzero;stroke:black;stroke-width:1.52px;stroke-linecap:round;"/>
            </g>
            <g id="path46" transform="matrix(4.66308,0,0,5.20833,-442.913,-1520.21)">
                <path d="M212.762,368.504L227.959,361.417L212.762,368.504Z" style="fill:none;fill-rule:nonzero;stroke:black;stroke-width:0.61px;stroke-linejoin:miter;"/>
            </g>
            <g id="path461" serif:id="path46" transform="matrix(4.66308,0,0,5.20833,-513.779,-1557.12)">
                <path d="M212.762,368.504L227.959,361.417L212.762,368.504Z" style="fill:none;fill-rule:nonzero;stroke:black;stroke-width:0.61px;stroke-linejoin:miter;"/>
            </g>
            <g id="path462" serif:id="path46" transform="matrix(4.66308,0,0,5.20833,-584.646,-1594.03)">
                <path d="M212.762,368.504L227.959,361.417L212.762,368.504Z" style="fill:none;fill-rule:nonzero;stroke:black;stroke-width:0.61px;stroke-linejoin:miter;"/>
            </g>
            <g id="path463" serif:id="path46" transform="matrix(4.66308,0,0,5.20833,-655.512,-1630.94)">
                <path d="M212.762,368.504L227.959,361.417L212.762,368.504Z" style="fill:none;fill-rule:nonzero;stroke:black;stroke-width:0.61px;stroke-linejoin:miter;"/>
            </g>
            <g id="path464" serif:id="path46" transform="matrix(4.66308,0,0,5.20833,-442.913,-1520.21)">
                <path d="M243.157,368.504L227.959,361.417L243.157,368.504Z" style="fill:none;fill-rule:nonzero;stroke:black;stroke-width:0.61px;stroke-linejoin:miter;"/>
            </g>
            <g id="path465" serif:id="path46" transform="matrix(4.66308,0,0,5.20833,-372.047,-1557.12)">
                <path d="M243.157,368.504L227.959,361.417L243.157,368.504Z" style="fill:none;fill-rule:nonzero;stroke:black;stroke-width:0.61px;stroke-linejoin:miter;"/>
            </g>
            <g id="path466" serif:id="path46" transform="matrix(4.66308,0,0,5.20833,-301.181,-1594.03)">
                <path d="M243.157,368.504L227.959,361.417L243.157,368.504Z" style="fill:none;fill-rule:nonzero;stroke:black;stroke-width:0.61px;stroke-linejoin:miter;"/>
            </g>
            <g id="path467" serif:id="path46" transform="matrix(4.66308,0,0,5.20833,-230.315,-1630.94)">
                <path d="M243.157,368.504L227.959,361.417L243.157,368.504Z" style="fill:none;fill-rule:nonzero;stroke:black;stroke-width:0.61px;stroke-linejoin:miter;"/>
            </g>
        </g>
        <g transform="matrix(1.66667,0,0,1.66667,-413.386,-336.258)">
            <g id="path8" transform="matrix(4.66308,0,0,5.20833,-372.047,-1557.12)">
                <path d="M151.973,439.37L167.17,432.283L167.17,378.337L151.973,371.534L151.973,439.37Z" style="fill:rgb(66,115,215);fill-rule:nonzero;stroke:black;stroke-width:1.52px;stroke-linecap:round;"/>
            </g>
            <g id="path38" transform="matrix(4.66308,0,0,5.20833,-372.047,-1468.54)">
                <path d="M167.17,398.268L151.973,405.354" style="fill:none;fill-rule:nonzero;stroke:black;stroke-width:0.61px;stroke-linejoin:miter;"/>
            </g>
            <g id="path381" serif:id="path38" transform="matrix(4.66308,0,0,5.20833,-372.047,-1645.7)">
                <path d="M167.17,398.268L151.973,405.354" style="fill:none;fill-rule:nonzero;stroke:black;stroke-width:0.61px;stroke-linejoin:miter;"/>
            </g>
            <g id="path382" serif:id="path38" transform="matrix(4.66308,0,0,5.20833,-372.047,-1557.12)">
                <path d="M167.17,398.268L151.973,405.354" style="fill:none;fill-rule:nonzero;stroke:black;stroke-width:0.61px;stroke-linejoin:miter;"/>
            </g>
        </g>
        <g transform="matrix(1.66667,0,0,1.66667,-413.386,-336.258)">
            <g id="path9" transform="matrix(4.66308,0,0,5.20833,-372.047,-1557.12)">
                <path d="M273.551,439.37L258.354,432.283L258.354,378.337L273.551,371.534" style="fill:rgb(215,81,66);fill-rule:nonzero;stroke:black;stroke-width:1.52px;stroke-linecap:round;"/>
            </g>
            <g id="path383" serif:id="path38" transform="matrix(-4.66308,0,0,5.20833,1612.2,-1467.69)">
                <path d="M167.17,398.268L151.973,405.354" style="fill:none;fill-rule:nonzero;stroke:black;stroke-width:0.61px;stroke-linejoin:miter;"/>
            </g>
            <g id="path384" serif:id="path38" transform="matrix(-4.66308,0,0,5.20833,1612.2,-1644.85)">
                <path d="M167.17,398.268L151.973,405.354" style="fill:none;fill-rule:nonzero;stroke:black;stroke-width:0.61px;stroke-linejoin:miter;"/>
            </g>
            <g id="path385" serif:id="path38" transform="matrix(-4.66308,0,0,5.20833,1612.2,-1556.27)">
                <path d="M167.17,398.268L151.973,405.354" style="fill:none;fill-rule:nonzero;stroke:black;stroke-width:0.61px;stroke-linejoin:miter;"/>
            </g>
        </g>
        <g transform="matrix(1.66667,0,0,1.66667,-413.386,-336.258)">
            <g id="path5" transform="matrix(4.66308,0,0,5.20833,-372.047,-1557.12)">
                <path d="M151.973,439.37L136.776,432.283L136.776,347.244L212.762,382.677L212.762,399.685L151.973,371.339L151.973,439.37Z" style="fill:rgb(224,119,108);fill-rule:nonzero;stroke:black;stroke-width:1.52px;stroke-linecap:round;"/>
            </g>
            <g id="path21" transform="matrix(4.66308,0,0,5.20833,-584.646,-1667.45)">
                <path d="M197.565,392.598L182.368,385.512" style="fill:none;fill-rule:nonzero;stroke:black;stroke-width:0.61px;stroke-linejoin:miter;"/>
            </g>
            <g id="path211" serif:id="path21" transform="matrix(4.66308,0,0,5.20833,-584.646,-1578.86)">
                <path d="M197.565,392.598L182.368,385.512" style="fill:none;fill-rule:nonzero;stroke:black;stroke-width:0.61px;stroke-linejoin:miter;"/>
            </g>
            <g id="path212" serif:id="path21" transform="matrix(4.66308,0,0,5.20833,-584.646,-1490.28)">
                <path d="M197.565,392.598L182.368,385.512" style="fill:none;fill-rule:nonzero;stroke:black;stroke-width:0.61px;stroke-linejoin:miter;"/>
            </g>
            <g id="path213" serif:id="path21" transform="matrix(4.66308,0,0,5.20833,-584.646,-1401.7)">
                <path d="M197.565,392.598L182.368,385.512" style="fill:none;fill-rule:nonzero;stroke:black;stroke-width:0.61px;stroke-linejoin:miter;"/>
            </g>
            <g id="path214" serif:id="path21" transform="matrix(4.66308,0,0,5.20833,-584.646,-1667.45)">
                <path d="M197.565,375.591L197.565,392.598" style="fill:none;fill-rule:nonzero;stroke:black;stroke-width:0.61px;stroke-linejoin:miter;"/>
            </g>
            <g id="path215" serif:id="path21" transform="matrix(4.66308,0,0,5.20833,-513.779,-1630.25)">
                <path d="M197.565,375.591L197.565,392.598" style="fill:none;fill-rule:nonzero;stroke:black;stroke-width:0.61px;stroke-linejoin:miter;"/>
            </g>
            <g id="path216" serif:id="path21" transform="matrix(4.66308,0,0,5.20833,-442.913,-1593.34)">
                <path d="M197.565,375.591L197.565,392.598" style="fill:none;fill-rule:nonzero;stroke:black;stroke-width:0.61px;stroke-linejoin:miter;"/>
            </g>
            <g id="path217" serif:id="path21" transform="matrix(4.66308,0,0,5.20833,-372.047,-1556.43)">
                <path d="M197.565,375.591L197.565,392.598" style="fill:none;fill-rule:nonzero;stroke:black;stroke-width:0.61px;stroke-linejoin:miter;"/>
            </g>
        </g>
        <g transform="matrix(1.66667,0,0,1.66667,-413.386,-336.258)">
            <g id="path6" transform="matrix(4.66308,0,0,5.20833,-372.047,-1557.12)">
                <path d="M288.749,432.283L288.749,347.244L212.762,382.677L212.762,399.685L273.551,371.339L273.551,439.37L288.749,432.283Z" style="fill:rgb(108,146,224);fill-rule:nonzero;stroke:black;stroke-width:1.52px;stroke-linecap:round;"/>
            </g>
            <g id="path218" serif:id="path21" transform="matrix(-4.66308,0,0,5.20833,1824.54,-1666.75)">
                <path d="M197.565,392.598L182.368,385.512" style="fill:none;fill-rule:nonzero;stroke:black;stroke-width:0.61px;stroke-linejoin:miter;"/>
            </g>
            <g id="path219" serif:id="path21" transform="matrix(-4.66308,0,0,5.20833,1824.54,-1578.17)">
                <path d="M197.565,392.598L182.368,385.512" style="fill:none;fill-rule:nonzero;stroke:black;stroke-width:0.61px;stroke-linejoin:miter;"/>
            </g>
            <g id="path2110" serif:id="path21" transform="matrix(-4.66308,0,0,5.20833,1824.54,-1489.59)">
                <path d="M197.565,392.598L182.368,385.512" style="fill:none;fill-rule:nonzero;stroke:black;stroke-width:0.61px;stroke-linejoin:miter;"/>
            </g>
            <g id="path2111" serif:id="path21" transform="matrix(-4.66308,0,0,5.20833,1824.54,-1401)">
                <path d="M197.565,392.598L182.368,385.512" style="fill:none;fill-rule:nonzero;stroke:black;stroke-width:0.61px;stroke-linejoin:miter;"/>
            </g>
            <g id="path2112" serif:id="path21" transform="matrix(-4.66308,0,0,5.20833,1824.54,-1666.75)">
                <path d="M197.565,375.591L197.565,392.598" style="fill:none;fill-rule:nonzero;stroke:black;stroke-width:0.61px;stroke-linejoin:miter;"/>
            </g>
            <g id="path2113" serif:id="path21" transform="matrix(-4.66308,0,0,5.20833,1753.68,-1629.55)">
                <path d="M197.565,375.591L197.565,392.598" style="fill:none;fill-rule:nonzero;stroke:black;stroke-width:0.61px;stroke-linejoin:miter;"/>
            </g>
            <g id="path2114" serif:id="path21" transform="matrix(-4.66308,0,0,5.20833,1682.81,-1592.64)">
                <path d="M197.565,375.591L197.565,392.598" style="fill:none;fill-rule:nonzero;stroke:black;stroke-width:0.61px;stroke-linejoin:miter;"/>
            </g>
            <g id="path2115" serif:id="path21" transform="matrix(-4.66308,0,0,5.20833,1611.95,-1555.74)">
                <path d="M197.565,375.591L197.565,392.598" style="fill:none;fill-rule:nonzero;stroke:black;stroke-width:0.61px;stroke-linejoin:miter;"/>
            </g>
        </g>
    </g>
    <g transform="matrix(0.937449,0,0,0.982004,-1354.57,652.141)">
        <g transform="matrix(222.234,0,0,212.151,1476.38,471.715)">
            <path d="M0.07,-0.498L0.159,-0.498L0.159,-0.407L0.25,-0.498L0.371,-0.498L0.446,-0.423L0.52,-0.498L0.683,-0.498L0.78,-0.401L0.78,-0L0.687,-0L0.687,-0.372L0.642,-0.417L0.541,-0.417L0.476,-0.352L0.476,-0L0.386,-0L0.386,-0.373L0.342,-0.417L0.266,-0.417L0.163,-0.314L0.163,-0L0.07,-0L0.07,-0.498Z" style="fill:rgb(207,208,208);fill-rule:nonzero;"/>
        </g>
        <g transform="matrix(222.234,0,0,212.151,1664.17,471.715)">
            <path d="M0.06,-0.095L0.06,-0.402L0.156,-0.498L0.417,-0.498L0.513,-0.402L0.513,-0.22L0.153,-0.22L0.153,-0.124L0.197,-0.08L0.376,-0.08L0.42,-0.123L0.42,-0.157L0.512,-0.157L0.512,-0.095L0.418,-0L0.155,-0L0.06,-0.095ZM0.42,-0.293L0.42,-0.374L0.375,-0.418L0.198,-0.418L0.153,-0.374L0.153,-0.293L0.42,-0.293Z" style="fill:rgb(207,208,208);fill-rule:nonzero;"/>
        </g>
        <g transform="matrix(222.234,0,0,212.151,1790.39,471.715)">
            <path d="M0.115,-0.095L0.115,-0.418L0.025,-0.418L0.025,-0.498L0.117,-0.498L0.117,-0.66L0.208,-0.66L0.208,-0.498L0.363,-0.498L0.363,-0.417L0.208,-0.417L0.208,-0.125L0.253,-0.081L0.363,-0.081L0.363,-0L0.211,-0L0.115,-0.095Z" style="fill:rgb(207,208,208);fill-rule:nonzero;"/>
        </g>
        <g transform="matrix(222.234,0,0,212.151,1878.84,471.715)">
            <path d="M0.055,-0.085L0.055,-0.208L0.14,-0.293L0.402,-0.293L0.402,-0.377L0.358,-0.42L0.195,-0.42L0.152,-0.377L0.152,-0.34L0.059,-0.34L0.059,-0.401L0.156,-0.498L0.397,-0.498L0.494,-0.401L0.494,-0L0.407,-0L0.407,-0.082L0.321,-0L0.14,-0L0.055,-0.085ZM0.308,-0.077L0.402,-0.167L0.402,-0.219L0.183,-0.219L0.148,-0.184L0.148,-0.111L0.183,-0.077L0.308,-0.077Z" style="fill:rgb(207,208,208);fill-rule:nonzero;"/>
        </g>
        <g transform="matrix(222.234,0,0,212.151,2000.85,471.715)">
            <path d="M0.115,-0.095L0.115,-0.418L0.025,-0.418L0.025,-0.498L0.117,-0.498L0.117,-0.66L0.208,-0.66L0.208,-0.498L0.363,-0.498L0.363,-0.417L0.208,-0.417L0.208,-0.125L0.253,-0.081L0.363,-0.081L0.363,-0L0.211,-0L0.115,-0.095Z" style="fill:rgb(207,208,208);fill-rule:nonzero;"/>
        </g>
        <g transform="matrix(222.234,0,0,212.151,2085.97,471.715)">
            <path d="M0.06,-0.095L0.06,-0.402L0.156,-0.498L0.417,-0.498L0.513,-0.402L0.513,-0.22L0.153,-0.22L0.153,-0.124L0.197,-0.08L0.376,-0.08L0.42,-0.123L0.42,-0.157L0.512,-0.157L0.512,-0.095L0.418,-0L0.155,-0L0.06,-0.095ZM0.42,-0.293L0.42,-0.374L0.375,-0.418L0.198,-0.418L0.153,-0.374L0.153,-0.293L0.42,-0.293Z" style="fill:rgb(207,208,208);fill-rule:nonzero;"/>
        </g>
        <g transform="matrix(222.234,0,0,212.151,2212.2,471.715)">
            <path d="M0.07,-0.498L0.159,-0.498L0.159,-0.4L0.257,-0.498L0.413,-0.498L0.511,-0.4L0.511,-0L0.418,-0L0.418,-0.372L0.373,-0.417L0.278,-0.417L0.163,-0.302L0.163,-0L0.07,-0L0.07,-0.498Z" style="fill:rgb(207,208,208);fill-rule:nonzero;"/>
        </g>
        <g transform="matrix(222.234,0,0,212.151,2340.2,471.715)">
            <path d="M0.045,-0.087L0.045,-0.149L0.138,-0.149L0.138,-0.112L0.172,-0.079L0.348,-0.079L0.382,-0.112L0.382,-0.178L0.348,-0.213L0.133,-0.213L0.049,-0.297L0.049,-0.411L0.135,-0.498L0.378,-0.498L0.465,-0.411L0.465,-0.349L0.372,-0.349L0.372,-0.386L0.338,-0.419L0.176,-0.419L0.142,-0.386L0.142,-0.324L0.176,-0.289L0.389,-0.289L0.475,-0.203L0.475,-0.087L0.389,-0L0.132,-0L0.045,-0.087Z" style="fill:rgb(207,208,208);fill-rule:nonzero;"/>
        </g>
        <g transform="matrix(222.234,0,0,212.151,2455.76,471.715)">
            <path d="M0.06,-0.096L0.06,-0.402L0.156,-0.498L0.422,-0.498L0.517,-0.402L0.517,-0.096L0.422,-0L0.156,-0L0.06,-0.096ZM0.379,-0.081L0.424,-0.125L0.424,-0.373L0.379,-0.417L0.198,-0.417L0.153,-0.373L0.153,-0.125L0.198,-0.081L0.379,-0.081Z" style="fill:rgb(207,208,208);fill-rule:nonzero;"/>
        </g>
        <g transform="matrix(222.234,0,0,212.151,2583.99,471.715)">
            <path d="M0.07,-0.498L0.159,-0.498L0.159,-0.411L0.245,-0.498L0.378,-0.498L0.378,-0.417L0.266,-0.417L0.163,-0.313L0.163,-0L0.07,-0L0.07,-0.498Z" style="fill:rgb(207,208,208);fill-rule:nonzero;"/>
        </g>
    </g>
</svg>
