<?xml version="1.0" encoding="UTF-8" standalone="no"?>
<!DOCTYPE svg PUBLIC "-//W3C//DTD SVG 1.1//EN" "http://www.w3.org/Graphics/SVG/1.1/DTD/svg11.dtd">
<svg width="100%" height="100%" viewBox="0 0 1182 1182" version="1.1" xmlns="http://www.w3.org/2000/svg" xmlns:xlink="http://www.w3.org/1999/xlink" xml:space="preserve" xmlns:serif="http://www.serif.com/" style="fill-rule:evenodd;clip-rule:evenodd;stroke-linejoin:round;">
    <g transform="matrix(1.63333,0,0,1.63333,-422.244,-232.915)">
        <g id="path1" transform="matrix(4.66308,-1.6206e-23,0,5.20833,-372.047,-1535.43)">
            <path d="M151.973,368.504L151.973,425.197L212.762,453.543L273.551,425.197L273.551,368.504L212.762,340.157L151.973,368.504Z" style="fill:white;fill-rule:nonzero;stroke:black;stroke-width:3.12px;"/>
        </g>
        <g id="path12" transform="matrix(4.66308,1.33597e-07,1.49218e-07,4.16667,-372.047,-1181.1)">
            <path d="M212.762,340.157L212.762,411.024" style="fill:none;fill-rule:nonzero;stroke:rgb(153,153,153);stroke-width:1.52px;stroke-linejoin:bevel;"/>
        </g>
        <g id="path10" transform="matrix(3.92947,-0.382089,-0.426767,4.98606,-46.6,-1365.93)">
            <path d="M288.749,432.283L212.762,396.85" style="fill:none;fill-rule:nonzero;stroke:rgb(153,153,153);stroke-width:1.52px;stroke-linejoin:bevel;"/>
        </g>
        <g id="path11" transform="matrix(3.92947,0.382089,0.426767,4.98606,-385.325,-1528.52)">
            <path d="M136.776,432.283L212.762,396.85" style="fill:none;fill-rule:nonzero;stroke:rgb(153,153,153);stroke-width:1.52px;stroke-linejoin:bevel;"/>
        </g>
        <g id="path13" serif:id="path1" transform="matrix(4.66308,0,0,5.20833,-372.047,-1535.43)">
            <path d="M151.973,368.504L151.973,425.197L212.762,453.543L273.551,425.197L273.551,368.504L212.762,340.157L151.973,368.504Z" style="fill:rgb(171,225,237);fill-opacity:0.5;fill-rule:nonzero;stroke:black;stroke-width:3.12px;"/>
        </g>
        <g id="path2" transform="matrix(4.66308,0,0,4.16667,-372.047,-1062.99)">
            <path d="M212.762,379.88L212.762,453.543" style="fill:none;fill-rule:nonzero;stroke:black;stroke-width:1.52px;stroke-linecap:round;stroke-linejoin:bevel;"/>
        </g>
    </g>
    <g transform="matrix(1.63333,0,0,1.63333,-422.244,-232.915)">
        <g id="path7" transform="matrix(4.66308,0,0,5.20833,-372.047,-1557.12)">
            <path d="M151.973,340.157L136.776,347.244L212.762,382.677L288.749,347.244L273.551,340.157L212.762,368.504L151.973,340.157" style="fill:rgb(152,108,224);fill-rule:nonzero;stroke:black;stroke-width:1.52px;stroke-linecap:round;"/>
        </g>
        <g id="path46" transform="matrix(4.66308,0,0,5.20833,-442.913,-1520.21)">
            <path d="M212.762,368.504L227.959,361.417L212.762,368.504Z" style="fill:none;fill-rule:nonzero;stroke:black;stroke-width:0.61px;stroke-linejoin:miter;"/>
        </g>
        <g id="path461" serif:id="path46" transform="matrix(4.66308,0,0,5.20833,-513.779,-1557.12)">
            <path d="M212.762,368.504L227.959,361.417L212.762,368.504Z" style="fill:none;fill-rule:nonzero;stroke:black;stroke-width:0.61px;stroke-linejoin:miter;"/>
        </g>
        <g id="path462" serif:id="path46" transform="matrix(4.66308,0,0,5.20833,-584.646,-1594.03)">
            <path d="M212.762,368.504L227.959,361.417L212.762,368.504Z" style="fill:none;fill-rule:nonzero;stroke:black;stroke-width:0.61px;stroke-linejoin:miter;"/>
        </g>
        <g id="path463" serif:id="path46" transform="matrix(4.66308,0,0,5.20833,-655.512,-1630.94)">
            <path d="M212.762,368.504L227.959,361.417L212.762,368.504Z" style="fill:none;fill-rule:nonzero;stroke:black;stroke-width:0.61px;stroke-linejoin:miter;"/>
        </g>
        <g id="path464" serif:id="path46" transform="matrix(4.66308,0,0,5.20833,-442.913,-1520.21)">
            <path d="M243.157,368.504L227.959,361.417L243.157,368.504Z" style="fill:none;fill-rule:nonzero;stroke:black;stroke-width:0.61px;stroke-linejoin:miter;"/>
        </g>
        <g id="path465" serif:id="path46" transform="matrix(4.66308,0,0,5.20833,-372.047,-1557.12)">
            <path d="M243.157,368.504L227.959,361.417L243.157,368.504Z" style="fill:none;fill-rule:nonzero;stroke:black;stroke-width:0.61px;stroke-linejoin:miter;"/>
        </g>
        <g id="path466" serif:id="path46" transform="matrix(4.66308,0,0,5.20833,-301.181,-1594.03)">
            <path d="M243.157,368.504L227.959,361.417L243.157,368.504Z" style="fill:none;fill-rule:nonzero;stroke:black;stroke-width:0.61px;stroke-linejoin:miter;"/>
        </g>
        <g id="path467" serif:id="path46" transform="matrix(4.66308,0,0,5.20833,-230.315,-1630.94)">
            <path d="M243.157,368.504L227.959,361.417L243.157,368.504Z" style="fill:none;fill-rule:nonzero;stroke:black;stroke-width:0.61px;stroke-linejoin:miter;"/>
        </g>
    </g>
    <g transform="matrix(1.63333,0,0,1.63333,-422.244,-232.915)">
        <g id="path8" transform="matrix(4.66308,0,0,5.20833,-372.047,-1557.12)">
            <path d="M151.973,439.37L167.17,432.283L167.17,378.337L151.973,371.534L151.973,439.37Z" style="fill:rgb(66,115,215);fill-rule:nonzero;stroke:black;stroke-width:1.52px;stroke-linecap:round;"/>
        </g>
        <g id="path38" transform="matrix(4.66308,0,0,5.20833,-372.047,-1468.54)">
            <path d="M167.17,398.268L151.973,405.354" style="fill:none;fill-rule:nonzero;stroke:black;stroke-width:0.61px;stroke-linejoin:miter;"/>
        </g>
        <g id="path381" serif:id="path38" transform="matrix(4.66308,0,0,5.20833,-372.047,-1645.7)">
            <path d="M167.17,398.268L151.973,405.354" style="fill:none;fill-rule:nonzero;stroke:black;stroke-width:0.61px;stroke-linejoin:miter;"/>
        </g>
        <g id="path382" serif:id="path38" transform="matrix(4.66308,0,0,5.20833,-372.047,-1557.12)">
            <path d="M167.17,398.268L151.973,405.354" style="fill:none;fill-rule:nonzero;stroke:black;stroke-width:0.61px;stroke-linejoin:miter;"/>
        </g>
    </g>
    <g transform="matrix(1.63333,0,0,1.63333,-422.244,-232.915)">
        <g id="path9" transform="matrix(4.66308,0,0,5.20833,-372.047,-1557.12)">
            <path d="M273.551,439.37L258.354,432.283L258.354,378.337L273.551,371.534" style="fill:rgb(215,81,66);fill-rule:nonzero;stroke:black;stroke-width:1.52px;stroke-linecap:round;"/>
        </g>
        <g id="path383" serif:id="path38" transform="matrix(-4.66308,0,0,5.20833,1612.2,-1467.69)">
            <path d="M167.17,398.268L151.973,405.354" style="fill:none;fill-rule:nonzero;stroke:black;stroke-width:0.61px;stroke-linejoin:miter;"/>
        </g>
        <g id="path384" serif:id="path38" transform="matrix(-4.66308,0,0,5.20833,1612.2,-1644.85)">
            <path d="M167.17,398.268L151.973,405.354" style="fill:none;fill-rule:nonzero;stroke:black;stroke-width:0.61px;stroke-linejoin:miter;"/>
        </g>
        <g id="path385" serif:id="path38" transform="matrix(-4.66308,0,0,5.20833,1612.2,-1556.27)">
            <path d="M167.17,398.268L151.973,405.354" style="fill:none;fill-rule:nonzero;stroke:black;stroke-width:0.61px;stroke-linejoin:miter;"/>
        </g>
    </g>
    <g transform="matrix(1.63333,0,0,1.63333,-422.244,-232.915)">
        <g id="path5" transform="matrix(4.66308,0,0,5.20833,-372.047,-1557.12)">
            <path d="M151.973,439.37L136.776,432.283L136.776,347.244L212.762,382.677L212.762,399.685L151.973,371.339L151.973,439.37Z" style="fill:rgb(224,119,108);fill-rule:nonzero;stroke:black;stroke-width:1.52px;stroke-linecap:round;"/>
        </g>
        <g id="path21" transform="matrix(4.66308,0,0,5.20833,-584.646,-1667.45)">
            <path d="M197.565,392.598L182.368,385.512" style="fill:none;fill-rule:nonzero;stroke:black;stroke-width:0.61px;stroke-linejoin:miter;"/>
        </g>
        <g id="path211" serif:id="path21" transform="matrix(4.66308,0,0,5.20833,-584.646,-1578.86)">
            <path d="M197.565,392.598L182.368,385.512" style="fill:none;fill-rule:nonzero;stroke:black;stroke-width:0.61px;stroke-linejoin:miter;"/>
        </g>
        <g id="path212" serif:id="path21" transform="matrix(4.66308,0,0,5.20833,-584.646,-1490.28)">
            <path d="M197.565,392.598L182.368,385.512" style="fill:none;fill-rule:nonzero;stroke:black;stroke-width:0.61px;stroke-linejoin:miter;"/>
        </g>
        <g id="path213" serif:id="path21" transform="matrix(4.66308,0,0,5.20833,-584.646,-1401.7)">
            <path d="M197.565,392.598L182.368,385.512" style="fill:none;fill-rule:nonzero;stroke:black;stroke-width:0.61px;stroke-linejoin:miter;"/>
        </g>
        <g id="path214" serif:id="path21" transform="matrix(4.66308,0,0,5.20833,-584.646,-1667.45)">
            <path d="M197.565,375.591L197.565,392.598" style="fill:none;fill-rule:nonzero;stroke:black;stroke-width:0.61px;stroke-linejoin:miter;"/>
        </g>
        <g id="path215" serif:id="path21" transform="matrix(4.66308,0,0,5.20833,-513.779,-1630.25)">
            <path d="M197.565,375.591L197.565,392.598" style="fill:none;fill-rule:nonzero;stroke:black;stroke-width:0.61px;stroke-linejoin:miter;"/>
        </g>
        <g id="path216" serif:id="path21" transform="matrix(4.66308,0,0,5.20833,-442.913,-1593.34)">
            <path d="M197.565,375.591L197.565,392.598" style="fill:none;fill-rule:nonzero;stroke:black;stroke-width:0.61px;stroke-linejoin:miter;"/>
        </g>
        <g id="path217" serif:id="path21" transform="matrix(4.66308,0,0,5.20833,-372.047,-1556.43)">
            <path d="M197.565,375.591L197.565,392.598" style="fill:none;fill-rule:nonzero;stroke:black;stroke-width:0.61px;stroke-linejoin:miter;"/>
        </g>
    </g>
    <g transform="matrix(1.63333,0,0,1.63333,-422.244,-232.915)">
        <g id="path6" transform="matrix(4.66308,0,0,5.20833,-372.047,-1557.12)">
            <path d="M288.749,432.283L288.749,347.244L212.762,382.677L212.762,399.685L273.551,371.339L273.551,439.37L288.749,432.283Z" style="fill:rgb(108,146,224);fill-rule:nonzero;stroke:black;stroke-width:1.52px;stroke-linecap:round;"/>
        </g>
        <g id="path218" serif:id="path21" transform="matrix(-4.66308,0,0,5.20833,1824.54,-1666.75)">
            <path d="M197.565,392.598L182.368,385.512" style="fill:none;fill-rule:nonzero;stroke:black;stroke-width:0.61px;stroke-linejoin:miter;"/>
        </g>
        <g id="path219" serif:id="path21" transform="matrix(-4.66308,0,0,5.20833,1824.54,-1578.17)">
            <path d="M197.565,392.598L182.368,385.512" style="fill:none;fill-rule:nonzero;stroke:black;stroke-width:0.61px;stroke-linejoin:miter;"/>
        </g>
        <g id="path2110" serif:id="path21" transform="matrix(-4.66308,0,0,5.20833,1824.54,-1489.59)">
            <path d="M197.565,392.598L182.368,385.512" style="fill:none;fill-rule:nonzero;stroke:black;stroke-width:0.61px;stroke-linejoin:miter;"/>
        </g>
        <g id="path2111" serif:id="path21" transform="matrix(-4.66308,0,0,5.20833,1824.54,-1401)">
            <path d="M197.565,392.598L182.368,385.512" style="fill:none;fill-rule:nonzero;stroke:black;stroke-width:0.61px;stroke-linejoin:miter;"/>
        </g>
        <g id="path2112" serif:id="path21" transform="matrix(-4.66308,0,0,5.20833,1824.54,-1666.75)">
            <path d="M197.565,375.591L197.565,392.598" style="fill:none;fill-rule:nonzero;stroke:black;stroke-width:0.61px;stroke-linejoin:miter;"/>
        </g>
        <g id="path2113" serif:id="path21" transform="matrix(-4.66308,0,0,5.20833,1753.68,-1629.55)">
            <path d="M197.565,375.591L197.565,392.598" style="fill:none;fill-rule:nonzero;stroke:black;stroke-width:0.61px;stroke-linejoin:miter;"/>
        </g>
        <g id="path2114" serif:id="path21" transform="matrix(-4.66308,0,0,5.20833,1682.81,-1592.64)">
            <path d="M197.565,375.591L197.565,392.598" style="fill:none;fill-rule:nonzero;stroke:black;stroke-width:0.61px;stroke-linejoin:miter;"/>
        </g>
        <g id="path2115" serif:id="path21" transform="matrix(-4.66308,0,0,5.20833,1611.95,-1555.74)">
            <path d="M197.565,375.591L197.565,392.598" style="fill:none;fill-rule:nonzero;stroke:black;stroke-width:0.61px;stroke-linejoin:miter;"/>
        </g>
    </g>
</svg>
