<?xml version="1.0" encoding="UTF-8" standalone="no"?>
<!DOCTYPE svg PUBLIC "-//W3C//DTD SVG 1.1//EN" "http://www.w3.org/Graphics/SVG/1.1/DTD/svg11.dtd">
<svg width="100%" height="100%" viewBox="0 0 1772 1418" version="1.1" xmlns="http://www.w3.org/2000/svg" xmlns:xlink="http://www.w3.org/1999/xlink" xml:space="preserve" xmlns:serif="http://www.serif.com/" style="fill-rule:evenodd;clip-rule:evenodd;stroke-linejoin:round;stroke-miterlimit:2;">
    <g transform="matrix(4.05435,0,0,3.7445,-1304.35,-1197.13)">
        <rect x="321.717" y="319.703" width="436.976" height="175.303" style="fill:rgb(242,221,217);"/>
    </g>
    <g transform="matrix(4.05435,0,0,3.7445,-1304.35,-436.229)">
        <rect x="321.717" y="319.703" width="436.976" height="175.303" style="fill:rgb(238,249,236);"/>
    </g>
    <g>
        <g transform="matrix(0.947743,0,0,1,41.5596,-81.8329)">
            <path d="M165.497,230.582L165.497,264.628L165.497,159.871L165.497,193.917L1560.87,193.917L1560.87,159.871L1616.14,212.249L1560.87,264.628L1560.87,230.582L165.497,230.582Z"/>
        </g>
        <g transform="matrix(2.7029,0,0,1.01062,-574.292,-282.278)">
            <rect x="321.717" y="319.703" width="436.976" height="175.303" style="fill:white;fill-opacity:0.9;"/>
        </g>
        <g transform="matrix(0.81087,0,0,0.808499,70.9679,-199.476)">
            <rect x="321.717" y="319.703" width="436.976" height="175.303" style="fill:rgb(153,204,255);fill-opacity:0.6;"/>
        </g>
        <g transform="matrix(0.81087,0,0,0.808499,448.299,-200.407)">
            <rect x="321.717" y="319.703" width="436.976" height="175.303" style="fill:rgb(153,204,255);fill-opacity:0.6;"/>
        </g>
        <g transform="matrix(0.81087,0,0,0.808499,824.614,-200.407)">
            <rect x="321.717" y="319.703" width="436.976" height="175.303" style="fill:rgb(153,204,255);fill-opacity:0.6;"/>
        </g>
        <g transform="matrix(1,0,0,1,227.351,-631.378)">
            <text x="534.983px" y="786.448px" style="font-family:'Avenir-Book', 'Avenir';font-size:66.667px;">library A</text>
        </g>
        <g transform="matrix(0.703195,0,0,0.703195,1457.52,-307.013)">
            <g transform="matrix(4.16667,0,0,4.16667,203.999,542.392)">
                <path d="M2.985,2.112C2.985,1.465 2.985,0.818 2.266,0.818C1.547,0.818 1.547,1.465 1.547,2.112L1.547,35.44C1.547,36.087 1.547,36.732 2.266,36.732C2.985,36.732 2.985,36.087 2.985,35.44L2.985,2.112" style="fill-rule:nonzero;"/>
            </g>
            <g transform="matrix(4.16667,0,0,4.16667,203.999,544.039)">
                <path d="M24.585,3.368C24.621,3.224 24.693,3.008 24.693,2.829C24.693,2.469 24.441,2.433 24.261,2.433C23.902,2.433 23.866,2.505 23.722,3.152L17.761,26.891C15.032,26.568 13.666,25.24 13.666,22.869C13.666,22.151 13.666,21.218 15.607,16.19C15.749,15.758 16.001,15.148 16.001,14.429C16.001,12.813 14.852,11.485 13.057,11.485C9.644,11.485 8.316,16.691 8.316,17.015C8.316,17.374 8.674,17.374 8.746,17.374C9.105,17.374 9.141,17.302 9.321,16.727C10.291,13.316 11.727,12.274 12.949,12.274C13.237,12.274 13.846,12.274 13.846,13.424C13.846,14.357 13.487,15.255 13.021,16.513C11.296,21.038 11.296,21.971 11.296,22.582C11.296,25.994 14.097,27.466 17.546,27.682C17.258,28.974 17.258,29.046 16.755,30.951C16.647,31.344 15.929,34.254 15.929,34.362C15.929,34.398 15.929,34.721 16.36,34.721C16.432,34.721 16.612,34.721 16.683,34.577C16.791,34.505 17.007,33.607 17.115,33.105L18.479,27.754C19.808,27.754 22.968,27.754 26.344,23.91C27.816,22.258 28.571,20.679 28.966,19.601C29.29,18.704 30.08,15.579 30.08,13.999C30.08,11.987 29.11,11.485 28.499,11.485C27.602,11.485 26.704,12.418 26.704,13.209C26.704,13.676 26.919,13.891 27.243,14.177C27.638,14.573 28.535,15.507 28.535,17.23C28.535,19.529 26.668,22.474 25.41,23.766C22.251,26.963 19.952,26.963 18.658,26.963L24.585,3.368" style="fill-rule:nonzero;"/>
            </g>
            <g transform="matrix(4.16667,0,0,4.16667,203.999,542.392)">
                <path d="M41.679,19.385C41.858,18.955 41.858,18.883 41.858,18.776C41.858,18.668 41.858,18.596 41.679,18.165L35.394,1.644C35.179,1.033 34.963,0.818 34.568,0.818C34.172,0.818 33.849,1.141 33.849,1.537C33.849,1.644 33.849,1.716 34.029,2.112L40.385,18.776L34.029,35.368C33.849,35.763 33.849,35.835 33.849,36.015C33.849,36.408 34.172,36.732 34.568,36.732C35.035,36.732 35.179,36.373 35.322,36.015L41.679,19.385" style="fill-rule:nonzero;"/>
            </g>
        </g>
        <g transform="matrix(1.53846,0,0,1.53846,-170.588,-856.584)">
            <g transform="matrix(0.565303,0,0,0.565303,104.602,243.65)">
                <circle cx="176.874" cy="641.872" r="31.34" style="fill:rgb(196,190,190);fill-opacity:0.92;"/>
            </g>
            <g transform="matrix(0.565303,0,0,0.565303,104.602,312.429)">
                <circle cx="176.874" cy="641.872" r="31.34" style="fill:rgb(196,190,190);fill-opacity:0.92;"/>
            </g>
            <g transform="matrix(0.942171,0,0,0.942171,8.41605,36.1385)">
                <circle cx="176.874" cy="641.872" r="31.34" style="fill:rgb(255,51,51);fill-opacity:0.92;"/>
            </g>
        </g>
    </g>
    <g>
        <g transform="matrix(0.947743,0,0,1,41.5596,170.567)">
            <path d="M165.497,230.582L165.497,264.628L165.497,159.871L165.497,193.917L1560.87,193.917L1560.87,159.871L1616.14,212.249L1560.87,264.628L1560.87,230.582L165.497,230.582Z"/>
        </g>
        <g transform="matrix(2.7029,0,0,1.01062,-574.292,-28.866)">
            <rect x="321.717" y="319.703" width="436.976" height="175.303" style="fill:white;fill-opacity:0.9;"/>
        </g>
        <g transform="matrix(1.62174,0,0,0.808499,206.369,53.4704)">
            <rect x="321.717" y="319.703" width="436.976" height="175.303" style="fill:rgb(102,204,204);fill-opacity:0.6;"/>
        </g>
        <g transform="matrix(0.81087,0,0,0.808499,74.0117,53.4704)">
            <rect x="321.717" y="319.703" width="436.976" height="175.303" style="fill:rgb(102,204,204);fill-opacity:0.6;"/>
        </g>
        <g transform="matrix(1,0,0,1,254.533,-378.431)">
            <text x="536.849px" y="786.448px" style="font-family:'Avenir-Book', 'Avenir';font-size:66.667px;">library B</text>
        </g>
        <g transform="matrix(0.703195,0,0,0.703195,1457.52,-53.601)">
            <g transform="matrix(4.16667,0,0,4.16667,203.999,542.392)">
                <path d="M2.985,2.112C2.985,1.465 2.985,0.818 2.266,0.818C1.547,0.818 1.547,1.465 1.547,2.112L1.547,35.44C1.547,36.087 1.547,36.732 2.266,36.732C2.985,36.732 2.985,36.087 2.985,35.44L2.985,2.112" style="fill-rule:nonzero;"/>
            </g>
            <g transform="matrix(4.16667,0,0,4.16667,203.999,544.039)">
                <path d="M24.585,3.368C24.621,3.224 24.693,3.008 24.693,2.829C24.693,2.469 24.441,2.433 24.261,2.433C23.902,2.433 23.866,2.505 23.722,3.152L17.761,26.891C15.032,26.568 13.666,25.24 13.666,22.869C13.666,22.151 13.666,21.218 15.607,16.19C15.749,15.758 16.001,15.148 16.001,14.429C16.001,12.813 14.852,11.485 13.057,11.485C9.644,11.485 8.316,16.691 8.316,17.015C8.316,17.374 8.674,17.374 8.746,17.374C9.105,17.374 9.141,17.302 9.321,16.727C10.291,13.316 11.727,12.274 12.949,12.274C13.237,12.274 13.846,12.274 13.846,13.424C13.846,14.357 13.487,15.255 13.021,16.513C11.296,21.038 11.296,21.971 11.296,22.582C11.296,25.994 14.097,27.466 17.546,27.682C17.258,28.974 17.258,29.046 16.755,30.951C16.647,31.344 15.929,34.254 15.929,34.362C15.929,34.398 15.929,34.721 16.36,34.721C16.432,34.721 16.612,34.721 16.683,34.577C16.791,34.505 17.007,33.607 17.115,33.105L18.479,27.754C19.808,27.754 22.968,27.754 26.344,23.91C27.816,22.258 28.571,20.679 28.966,19.601C29.29,18.704 30.08,15.579 30.08,13.999C30.08,11.987 29.11,11.485 28.499,11.485C27.602,11.485 26.704,12.418 26.704,13.209C26.704,13.676 26.919,13.891 27.243,14.177C27.638,14.573 28.535,15.507 28.535,17.23C28.535,19.529 26.668,22.474 25.41,23.766C22.251,26.963 19.952,26.963 18.658,26.963L24.585,3.368" style="fill-rule:nonzero;"/>
            </g>
            <g transform="matrix(4.16667,0,0,4.16667,203.999,542.392)">
                <path d="M41.679,19.385C41.858,18.955 41.858,18.883 41.858,18.776C41.858,18.668 41.858,18.596 41.679,18.165L35.394,1.644C35.179,1.033 34.963,0.818 34.568,0.818C34.172,0.818 33.849,1.141 33.849,1.537C33.849,1.644 33.849,1.716 34.029,2.112L40.385,18.776L34.029,35.368C33.849,35.763 33.849,35.835 33.849,36.015C33.849,36.408 34.172,36.732 34.568,36.732C35.035,36.732 35.179,36.373 35.322,36.015L41.679,19.385" style="fill-rule:nonzero;"/>
            </g>
        </g>
        <g transform="matrix(1.53846,0,0,1.53846,-170.588,-603.172)">
            <g transform="matrix(0.565303,0,0,0.565303,104.602,243.65)">
                <circle cx="176.874" cy="641.872" r="31.34" style="fill:rgb(196,190,190);fill-opacity:0.92;"/>
            </g>
            <g transform="matrix(0.565303,0,0,0.565303,104.602,312.429)">
                <circle cx="176.874" cy="641.872" r="31.34" style="fill:rgb(196,190,190);fill-opacity:0.92;"/>
            </g>
            <g transform="matrix(0.942171,0,0,0.942171,8.41605,36.1385)">
                <circle cx="176.874" cy="641.872" r="31.34" style="fill:rgb(255,51,51);fill-opacity:0.92;"/>
            </g>
        </g>
    </g>
    <g>
        <g transform="matrix(0.947743,0,0,1,41.5596,699.255)">
            <path d="M165.497,230.582L165.497,264.628L165.497,159.871L165.497,193.917L1560.87,193.917L1560.87,159.871L1616.14,212.249L1560.87,264.628L1560.87,230.582L165.497,230.582Z"/>
        </g>
        <g transform="matrix(1,0,0,1,67.6044,-4.98306)">
            <g transform="matrix(0.81087,0,0,1.01062,50.4729,497.872)">
                <rect x="321.717" y="319.703" width="436.976" height="175.303" style="fill:rgb(153,204,255);fill-opacity:0.95;"/>
            </g>
            <g transform="matrix(1,0,0,1,-137.769,147.565)">
                <text x="502.278px" y="786.448px" style="font-family:'Avenir-Book', 'Avenir';font-size:66.667px;">library A</text>
            </g>
        </g>
        <g transform="matrix(1,0,0,1,177.813,-305.439)">
            <g transform="matrix(0.81087,0,0,1.01062,589.925,798.327)">
                <rect x="321.717" y="319.703" width="436.976" height="175.303" style="fill:rgb(153,255,153);fill-opacity:0.95;"/>
            </g>
            <g transform="matrix(1,0,0,1,406.127,448.762)">
                <text x="496.9px" y="786.448px" style="font-family:'Avenir-Book', 'Avenir';font-size:66.667px;">librar</text>
                <text x="648.5px" y="786.448px" style="font-family:'Avenir-Book', 'Avenir';font-size:66.667px;">y</text>
                <text x="699.833px" y="786.448px" style="font-family:'Avenir-Book', 'Avenir';font-size:66.667px;">C</text>
            </g>
        </g>
        <g transform="matrix(0.703195,0,0,0.703195,1457.52,468.154)">
            <g transform="matrix(4.16667,0,0,4.16667,203.999,542.392)">
                <path d="M2.985,2.112C2.985,1.465 2.985,0.818 2.266,0.818C1.547,0.818 1.547,1.465 1.547,2.112L1.547,35.44C1.547,36.087 1.547,36.732 2.266,36.732C2.985,36.732 2.985,36.087 2.985,35.44L2.985,2.112" style="fill-rule:nonzero;"/>
            </g>
            <g transform="matrix(4.16667,0,0,4.16667,203.999,544.039)">
                <path d="M24.585,3.368C24.621,3.224 24.693,3.008 24.693,2.829C24.693,2.469 24.441,2.433 24.261,2.433C23.902,2.433 23.866,2.505 23.722,3.152L17.761,26.891C15.032,26.568 13.666,25.24 13.666,22.869C13.666,22.151 13.666,21.218 15.607,16.19C15.749,15.758 16.001,15.148 16.001,14.429C16.001,12.813 14.852,11.485 13.057,11.485C9.644,11.485 8.316,16.691 8.316,17.015C8.316,17.374 8.674,17.374 8.746,17.374C9.105,17.374 9.141,17.302 9.321,16.727C10.291,13.316 11.727,12.274 12.949,12.274C13.237,12.274 13.846,12.274 13.846,13.424C13.846,14.357 13.487,15.255 13.021,16.513C11.296,21.038 11.296,21.971 11.296,22.582C11.296,25.994 14.097,27.466 17.546,27.682C17.258,28.974 17.258,29.046 16.755,30.951C16.647,31.344 15.929,34.254 15.929,34.362C15.929,34.398 15.929,34.721 16.36,34.721C16.432,34.721 16.612,34.721 16.683,34.577C16.791,34.505 17.007,33.607 17.115,33.105L18.479,27.754C19.808,27.754 22.968,27.754 26.344,23.91C27.816,22.258 28.571,20.679 28.966,19.601C29.29,18.704 30.08,15.579 30.08,13.999C30.08,11.987 29.11,11.485 28.499,11.485C27.602,11.485 26.704,12.418 26.704,13.209C26.704,13.676 26.919,13.891 27.243,14.177C27.638,14.573 28.535,15.507 28.535,17.23C28.535,19.529 26.668,22.474 25.41,23.766C22.251,26.963 19.952,26.963 18.658,26.963L24.585,3.368" style="fill-rule:nonzero;"/>
            </g>
            <g transform="matrix(4.16667,0,0,4.16667,203.999,542.392)">
                <path d="M41.679,19.385C41.858,18.955 41.858,18.883 41.858,18.776C41.858,18.668 41.858,18.596 41.679,18.165L35.394,1.644C35.179,1.033 34.963,0.818 34.568,0.818C34.172,0.818 33.849,1.141 33.849,1.537C33.849,1.644 33.849,1.716 34.029,2.112L40.385,18.776L34.029,35.368C33.849,35.763 33.849,35.835 33.849,36.015C33.849,36.408 34.172,36.732 34.568,36.732C35.035,36.732 35.179,36.373 35.322,36.015L41.679,19.385" style="fill-rule:nonzero;"/>
            </g>
        </g>
        <g transform="matrix(1.53846,0,0,1.53846,-170.588,-74.4838)">
            <g transform="matrix(0.565303,0,0,0.565303,104.602,243.65)">
                <circle cx="176.874" cy="641.872" r="31.34" style="fill:rgb(196,190,190);fill-opacity:0.92;"/>
            </g>
            <g transform="matrix(0.565303,0,0,0.565303,104.602,312.429)">
                <circle cx="176.874" cy="641.872" r="31.34" style="fill:rgb(196,190,190);fill-opacity:0.92;"/>
            </g>
            <g transform="matrix(0.942171,0,0,0.942171,8.41605,36.1385)">
                <circle cx="176.874" cy="641.872" r="31.34" style="fill:rgb(255,51,51);fill-opacity:0.92;"/>
            </g>
        </g>
    </g>
    <g>
        <g transform="matrix(0.947743,0,0,1,41.5596,958.176)">
            <path d="M165.497,230.582L165.497,264.628L165.497,159.871L165.497,193.917L1560.87,193.917L1560.87,159.871L1616.14,212.249L1560.87,264.628L1560.87,230.582L165.497,230.582Z"/>
        </g>
        <g transform="matrix(1,0,0,1,397.257,260.871)">
            <g transform="matrix(0.81087,0,0,1.01062,50.4729,497.872)">
                <rect x="321.717" y="319.703" width="436.976" height="175.303" style="fill:rgb(153,204,255);fill-opacity:0.95;"/>
            </g>
            <g transform="matrix(1,0,0,1,-137.769,147.565)">
                <text x="502.278px" y="786.448px" style="font-family:'Avenir-Book', 'Avenir';font-size:66.667px;">library A</text>
            </g>
        </g>
        <g transform="matrix(1,0,0,1,-36.6295,-39.5841)">
            <g transform="matrix(0.81087,0,0,1.01062,47.4514,798.327)">
                <rect x="321.717" y="319.703" width="436.976" height="175.303" style="fill:rgb(102,204,204);fill-opacity:0.95;"/>
            </g>
            <g transform="matrix(1,0,0,1,-154.612,448.762)">
                <text x="517.965px" y="786.448px" style="font-family:'Avenir-Book', 'Avenir';font-size:66.667px;">library B</text>
            </g>
        </g>
        <g transform="matrix(1,0,0,1,837.309,-39.5841)">
            <g transform="matrix(0.81087,0,0,1.01062,47.4514,798.327)">
                <rect x="321.717" y="319.703" width="436.976" height="175.303" style="fill:rgb(102,204,204);fill-opacity:0.95;"/>
            </g>
            <g transform="matrix(1,0,0,1,-154.612,448.762)">
                <text x="517.965px" y="786.448px" style="font-family:'Avenir-Book', 'Avenir';font-size:66.667px;">library B</text>
            </g>
        </g>
        <g transform="matrix(0.703195,0,0,0.703195,1457.52,734.008)">
            <g transform="matrix(4.16667,0,0,4.16667,203.999,542.392)">
                <path d="M2.985,2.112C2.985,1.465 2.985,0.818 2.266,0.818C1.547,0.818 1.547,1.465 1.547,2.112L1.547,35.44C1.547,36.087 1.547,36.732 2.266,36.732C2.985,36.732 2.985,36.087 2.985,35.44L2.985,2.112" style="fill-rule:nonzero;"/>
            </g>
            <g transform="matrix(4.16667,0,0,4.16667,203.999,544.039)">
                <path d="M24.585,3.368C24.621,3.224 24.693,3.008 24.693,2.829C24.693,2.469 24.441,2.433 24.261,2.433C23.902,2.433 23.866,2.505 23.722,3.152L17.761,26.891C15.032,26.568 13.666,25.24 13.666,22.869C13.666,22.151 13.666,21.218 15.607,16.19C15.749,15.758 16.001,15.148 16.001,14.429C16.001,12.813 14.852,11.485 13.057,11.485C9.644,11.485 8.316,16.691 8.316,17.015C8.316,17.374 8.674,17.374 8.746,17.374C9.105,17.374 9.141,17.302 9.321,16.727C10.291,13.316 11.727,12.274 12.949,12.274C13.237,12.274 13.846,12.274 13.846,13.424C13.846,14.357 13.487,15.255 13.021,16.513C11.296,21.038 11.296,21.971 11.296,22.582C11.296,25.994 14.097,27.466 17.546,27.682C17.258,28.974 17.258,29.046 16.755,30.951C16.647,31.344 15.929,34.254 15.929,34.362C15.929,34.398 15.929,34.721 16.36,34.721C16.432,34.721 16.612,34.721 16.683,34.577C16.791,34.505 17.007,33.607 17.115,33.105L18.479,27.754C19.808,27.754 22.968,27.754 26.344,23.91C27.816,22.258 28.571,20.679 28.966,19.601C29.29,18.704 30.08,15.579 30.08,13.999C30.08,11.987 29.11,11.485 28.499,11.485C27.602,11.485 26.704,12.418 26.704,13.209C26.704,13.676 26.919,13.891 27.243,14.177C27.638,14.573 28.535,15.507 28.535,17.23C28.535,19.529 26.668,22.474 25.41,23.766C22.251,26.963 19.952,26.963 18.658,26.963L24.585,3.368" style="fill-rule:nonzero;"/>
            </g>
            <g transform="matrix(4.16667,0,0,4.16667,203.999,542.392)">
                <path d="M41.679,19.385C41.858,18.955 41.858,18.883 41.858,18.776C41.858,18.668 41.858,18.596 41.679,18.165L35.394,1.644C35.179,1.033 34.963,0.818 34.568,0.818C34.172,0.818 33.849,1.141 33.849,1.537C33.849,1.644 33.849,1.716 34.029,2.112L40.385,18.776L34.029,35.368C33.849,35.763 33.849,35.835 33.849,36.015C33.849,36.408 34.172,36.732 34.568,36.732C35.035,36.732 35.179,36.373 35.322,36.015L41.679,19.385" style="fill-rule:nonzero;"/>
            </g>
        </g>
        <g transform="matrix(1.53846,0,0,1.53846,-170.588,184.438)">
            <g transform="matrix(0.565303,0,0,0.565303,104.602,243.65)">
                <circle cx="176.874" cy="641.872" r="31.34" style="fill:rgb(196,190,190);fill-opacity:0.92;"/>
            </g>
            <g transform="matrix(0.565303,0,0,0.565303,104.602,312.429)">
                <circle cx="176.874" cy="641.872" r="31.34" style="fill:rgb(196,190,190);fill-opacity:0.92;"/>
            </g>
            <g transform="matrix(0.942171,0,0,0.942171,8.41605,36.1385)">
                <circle cx="176.874" cy="641.872" r="31.34" style="fill:rgb(255,51,51);fill-opacity:0.92;"/>
            </g>
        </g>
    </g>
    <g transform="matrix(1,0,0,1,80.2183,-182.272)">
        <text x="487.242px" y="786.448px" style="font-family:'Avenir-Black', 'Avenir', sans-serif;font-weight:800;font-size:66.667px;">Without metatensor</text>
    </g>
    <g transform="matrix(1,0,0,1,80.2183,578.988)">
        <text x="540.942px" y="786.448px" style="font-family:'Avenir-Black', 'Avenir', sans-serif;font-weight:800;font-size:66.667px;">Wit</text>
        <text x="652.075px" y="786.448px" style="font-family:'Avenir-Black', 'Avenir', sans-serif;font-weight:800;font-size:66.667px;">h</text>
        <text x="708.742px" y="786.448px" style="font-family:'Avenir-Black', 'Avenir', sans-serif;font-weight:800;font-size:66.667px;">metatensor</text>
    </g>
</svg>
