<?xml version="1.0" encoding="UTF-8" standalone="no"?>
<!DOCTYPE svg PUBLIC "-//W3C//DTD SVG 1.1//EN" "http://www.w3.org/Graphics/SVG/1.1/DTD/svg11.dtd">
<svg width="100%" height="100%" viewBox="0 0 256 256" version="1.1" xmlns="http://www.w3.org/2000/svg" xmlns:xlink="http://www.w3.org/1999/xlink" xml:space="preserve" xmlns:serif="http://www.serif.com/" style="fill-rule:evenodd;clip-rule:evenodd;stroke-linejoin:round;stroke-miterlimit:2;">
    <g transform="matrix(0.743432,0,0,0.743432,14.2549,-6.00275e-14)">
        <path d="M302.107,258.262C304.508,254.103 306,249.417 306,245.209L306,99.14C306,94.932 304.51,90.247 302.108,86.088L153,172.175L302.107,258.262Z" style="fill:rgb(0,89,156);fill-rule:nonzero;"/>
    </g>
    <g transform="matrix(0.743432,0,0,0.743432,14.2549,-6.00275e-14)">
        <path d="M166.25,341.193L292.75,268.159C296.394,266.055 299.706,262.422 302.107,258.262L153,172.175L3.893,258.263C6.294,262.422 9.607,266.056 13.25,268.159L139.75,341.193C147.037,345.401 158.963,345.401 166.25,341.193Z" style="fill:rgb(0,68,130);fill-rule:nonzero;"/>
    </g>
    <g transform="matrix(0.743432,0,0,0.743432,14.2549,-6.00275e-14)">
        <path d="M302.108,86.087C299.706,81.927 296.393,78.294 292.75,76.19L166.25,3.156C158.963,-1.052 147.037,-1.052 139.75,3.156L13.25,76.19C5.962,80.397 0,90.725 0,99.14L0,245.209C0,249.417 1.491,254.103 3.893,258.262L153,172.175L302.108,86.087Z" style="fill:rgb(101,154,210);fill-rule:nonzero;"/>
    </g>
    <g transform="matrix(0.743432,0,0,0.743432,14.2549,-5.68434e-14)">
        <path d="M153,274.175C96.757,274.175 51,228.418 51,172.175C51,115.932 96.757,70.175 153,70.175C189.292,70.175 223.139,89.705 241.331,121.143L197.188,146.687C188.083,130.951 171.15,121.175 153,121.175C124.878,121.175 102,144.053 102,172.175C102,200.296 124.878,223.175 153,223.175C171.152,223.175 188.085,213.399 197.191,197.66L241.334,223.203C223.142,254.644 189.294,274.175 153,274.175Z" style="fill:white;fill-rule:nonzero;"/>
    </g>
    <g transform="matrix(0.743432,0,0,0.743432,14.2549,-5.68434e-14)">
        <path d="M255,166.508L243.666,166.508L243.666,155.175L232.334,155.175L232.334,166.508L221,166.508L221,177.841L232.334,177.841L232.334,189.175L243.666,189.175L243.666,177.841L255,177.841L255,166.508Z" style="fill:white;fill-rule:nonzero;"/>
    </g>
    <g transform="matrix(0.743432,0,0,0.743432,14.2549,-5.68434e-14)">
        <path d="M297.5,166.508L286.166,166.508L286.166,155.175L274.834,155.175L274.834,166.508L263.5,166.508L263.5,177.841L274.834,177.841L274.834,189.175L286.166,189.175L286.166,177.841L297.5,177.841L297.5,166.508Z" style="fill:white;fill-rule:nonzero;"/>
    </g>
</svg>
