<?xml version="1.0" encoding="UTF-8" standalone="no"?>
<!DOCTYPE svg PUBLIC "-//W3C//DTD SVG 1.1//EN" "http://www.w3.org/Graphics/SVG/1.1/DTD/svg11.dtd">
<svg width="100%" height="100%" viewBox="0 0 256 256" version="1.1" xmlns="http://www.w3.org/2000/svg" xmlns:xlink="http://www.w3.org/1999/xlink" xml:space="preserve" xmlns:serif="http://www.serif.com/" style="fill-rule:evenodd;clip-rule:evenodd;stroke-linejoin:round;stroke-miterlimit:2;">
    <g id="path2" transform="matrix(0.609523,0,0,0.609523,12.1903,-4.97937e-10)">
        <path d="M179.03,2.863C185.82,-0.947 194.18,-0.947 200.96,2.863C234.51,21.693 335.47,78.373 369.03,97.203C375.82,101.003 380,108.043 380,115.663L380,304.333C380,311.953 375.82,318.993 369.03,322.803C335.48,341.633 234.52,398.313 200.96,417.143C194.17,420.953 185.81,420.953 179.03,417.143C145.48,398.313 44.52,341.633 10.96,322.803C4.18,318.993 0,311.963 0,304.343L0,115.673C0,108.053 4.18,101.013 10.97,97.203C44.51,78.373 145.49,21.693 179.03,2.863Z" style="fill:rgb(40,53,147);"/>
    </g>
    <g id="path4" transform="matrix(0.609523,0,0,0.609523,12.1903,-4.97937e-10)">
        <path d="M3.04,314.043C0.38,310.483 0,307.103 0,302.553L0,114.963C0,107.383 4.17,100.383 10.94,96.603C44.37,77.883 144.99,21.533 178.42,2.803C185.19,-0.987 194.36,-0.907 201.13,2.883C234.56,21.603 334.84,77.473 368.27,96.193C370.97,97.713 373.03,99.543 374.87,101.953L3.04,314.043Z" style="fill:rgb(92,107,192);"/>
    </g>
    <g id="path6" transform="matrix(0.609523,0,0,0.609523,12.1903,-4.97937e-10)">
        <path d="M190,70.003C267.27,70.003 330,132.733 330,210.003C330,287.273 267.27,350.003 190,350.003C112.73,350.003 50,287.273 50,210.003C50,132.733 112.73,70.003 190,70.003ZM190,140.003C228.63,140.003 260,171.363 260,210.003C260,248.633 228.63,280.003 190,280.003C151.37,280.003 120,248.633 120,210.003C120,171.363 151.36,140.003 190,140.003Z" style="fill:white;"/>
    </g>
    <g id="path8" transform="matrix(0.609523,0,0,0.609523,12.1903,-4.97937e-10)">
        <path d="M374.85,102.053C380.01,106.883 379.91,114.163 379.91,119.893C379.91,157.843 379.59,265.783 380,303.733C380.04,307.693 378.73,311.863 376.77,315.003L185.93,210.003L374.85,102.053Z" style="fill:rgb(57,73,171);"/>
    </g>
</svg>
