<?xml version="1.0" encoding="UTF-8" standalone="no"?>
<!DOCTYPE svg PUBLIC "-//W3C//DTD SVG 1.1//EN" "http://www.w3.org/Graphics/SVG/1.1/DTD/svg11.dtd">
<svg width="100%" height="100%" viewBox="0 0 256 256" version="1.1" xmlns="http://www.w3.org/2000/svg" xmlns:xlink="http://www.w3.org/1999/xlink" xml:space="preserve" xmlns:serif="http://www.serif.com/" style="fill-rule:evenodd;clip-rule:evenodd;stroke-linejoin:round;stroke-miterlimit:2;">
    <g id="path1948" transform="matrix(2.29038,0,0,2.29038,-29.1824,-26.4117)">
        <path d="M67.965,11.532C63.382,11.554 59.004,11.945 55.153,12.626C43.807,14.631 41.747,18.826 41.747,26.564L41.747,36.782L68.559,36.782L68.559,40.189L31.684,40.189C23.892,40.189 17.068,44.872 14.934,53.782C12.472,63.995 12.363,70.369 14.934,81.032C16.84,88.97 21.392,94.626 29.184,94.626L38.403,94.626L38.403,82.376C38.403,73.526 46.06,65.72 55.153,65.72L81.934,65.72C89.389,65.72 95.34,59.582 95.34,52.095L95.34,26.564C95.34,19.297 89.21,13.839 81.934,12.626C77.328,11.86 72.549,11.511 67.965,11.532ZM53.465,19.751C56.235,19.751 58.497,22.05 58.497,24.876C58.497,27.693 56.235,29.97 53.465,29.97C50.686,29.97 48.434,27.693 48.434,24.876C48.434,22.05 50.686,19.751 53.465,19.751Z" style="fill:url(#_Linear1);fill-rule:nonzero;"/>
    </g>
    <g id="path1950" transform="matrix(2.29038,0,0,2.29038,-29.1824,-26.4117)">
        <path d="M98.684,40.189L98.684,52.095C98.684,61.326 90.858,69.095 81.934,69.095L55.153,69.095C47.817,69.095 41.747,75.373 41.747,82.72L41.747,108.251C41.747,115.518 48.065,119.792 55.153,121.876C63.64,124.372 71.779,124.823 81.934,121.876C88.684,119.922 95.34,115.989 95.34,108.251L95.34,98.032L68.559,98.032L68.559,94.626L108.747,94.626C116.539,94.626 119.443,89.191 122.153,81.032C124.952,72.634 124.833,64.557 122.153,53.782C120.227,46.025 116.549,40.189 108.747,40.189L98.684,40.189ZM83.622,104.845C86.401,104.845 88.653,107.122 88.653,109.939C88.653,112.765 86.401,115.064 83.622,115.064C80.852,115.064 78.59,112.765 78.59,109.939C78.59,107.122 80.852,104.845 83.622,104.845Z" style="fill:url(#_Linear2);fill-rule:nonzero;"/>
    </g>
    <defs>
        <linearGradient id="_Linear1" x1="0" y1="0" x2="1" y2="0" gradientUnits="userSpaceOnUse" gradientTransform="matrix(61.3261,53.2723,-53.2723,61.3261,13.0465,11.5316)"><stop offset="0" style="stop-color:rgb(90,159,212);stop-opacity:1"/><stop offset="1" style="stop-color:rgb(48,105,152);stop-opacity:1"/></linearGradient>
        <linearGradient id="_Linear2" x1="0" y1="0" x2="1" y2="0" gradientUnits="userSpaceOnUse" gradientTransform="matrix(-21.8995,-31.2832,31.2832,-21.8995,82.9772,109.08)"><stop offset="0" style="stop-color:rgb(255,212,59);stop-opacity:1"/><stop offset="1" style="stop-color:rgb(255,232,115);stop-opacity:1"/></linearGradient>
    </defs>
</svg>
