<?xml version="1.0" encoding="UTF-8" standalone="no"?>
<!DOCTYPE svg PUBLIC "-//W3C//DTD SVG 1.1//EN" "http://www.w3.org/Graphics/SVG/1.1/DTD/svg11.dtd">
<svg width="100%" height="100%" viewBox="0 0 257 256" version="1.1" xmlns="http://www.w3.org/2000/svg" xmlns:xlink="http://www.w3.org/1999/xlink" xml:space="preserve" xmlns:serif="http://www.serif.com/" style="fill-rule:evenodd;clip-rule:evenodd;stroke-linejoin:round;stroke-miterlimit:2;">
    <g transform="matrix(1.0038,0,0,1.0038,0.014254,-0.793104)">
        <g id="layer101">
            <path id="path2" d="M37.4,255.82C22.323,255.825 -0.014,229.504 -0.014,218.166L-0.014,37.966C-0.014,22.708 26.384,0.789 37.776,0.79L218.311,0.803C233.89,0.804 255.028,26.215 255.028,38.325L255.028,218.702C255.028,236.471 231.222,255.755 217.8,255.759L37.4,255.82Z" style="fill:rgb(115,79,150);fill-rule:nonzero;"/>
        </g>
    </g>
    <g transform="matrix(1.0038,0,0,1.0038,0.014254,-0.793104)">
        <g id="layer102">
            <path id="path5" d="M35,206.2L44.8,205.6C64.7,204.3 64.5,204.4 65.5,188.8C66.4,174 65.266,58.123 64.6,55.8C63.502,51.973 59.384,49.772 47.1,49.775L35,49.7L35,28L221,28L221,111.1L199.1,110.775C198.9,110.575 198.3,104.7 197.9,99.3C195.6,73.9 189.9,59.286 178.9,53.586C173.1,50.586 164.043,49.702 135.035,49.693L108,49.7L108,112L112.8,112C120.9,111.9 131.2,110 134.6,107.9C139,105.2 142.7,97.4 144,88C144.98,81.14 145.736,76.007 145.736,76.007L167,76L167,175L145,175L145,171.1C145,164.7 142,149.8 139.9,145.3C136.6,138.4 131,136 115.1,134.5L107.8,133.8L108.2,165.9C108.5,196.4 108.7,198.1 110.6,200.7C113,203.9 115.6,204.5 131.5,205.7L142.173,206.208L142.1,228L35,228L35,206.2Z" style="fill:white;fill-rule:nonzero;"/>
        </g>
    </g>
</svg>
