<?xml version="1.0" encoding="UTF-8" standalone="no"?>
<!DOCTYPE svg PUBLIC "-//W3C//DTD SVG 1.1//EN" "http://www.w3.org/Graphics/SVG/1.1/DTD/svg11.dtd">
<svg width="100%" height="100%" viewBox="0 0 256 256" version="1.1" xmlns="http://www.w3.org/2000/svg" xmlns:xlink="http://www.w3.org/1999/xlink" xml:space="preserve" xmlns:serif="http://www.serif.com/" style="fill-rule:evenodd;clip-rule:evenodd;stroke-linejoin:round;stroke-miterlimit:2;">
    <g transform="matrix(3.30199,0,0,3.30199,-76.7927,-49.0657)">
        <path d="M62.021,14.859L95.592,34.242L95.592,73.006L62.021,92.388L28.45,73.006L28.45,34.242L62.021,14.859Z" style="fill:rgb(235,235,235);"/>
    </g>
    <g id="path3" transform="matrix(1.43879,0,0,1.43879,24.4072,24.4072)">
        <path d="M142.121,70.256L136.152,66.561C136.102,65.979 136.045,65.399 135.982,64.822L141.112,60.037C141.634,59.551 141.867,58.831 141.726,58.134C141.589,57.434 141.098,56.858 140.431,56.61L133.874,54.158C133.709,53.59 133.537,53.026 133.36,52.465L137.451,46.784C137.868,46.206 137.953,45.455 137.682,44.796C137.41,44.14 136.816,43.67 136.114,43.555L129.199,42.43C128.93,41.905 128.65,41.389 128.368,40.877L131.274,34.499C131.571,33.85 131.51,33.094 131.113,32.505C130.718,31.912 130.048,31.566 129.334,31.593L122.316,31.838C121.953,31.384 121.584,30.934 121.207,30.493L122.82,23.657C122.983,22.963 122.778,22.236 122.272,21.732C121.771,21.229 121.043,21.021 120.349,21.184L113.514,22.795C113.071,22.421 112.622,22.05 112.166,21.687L112.412,14.669C112.44,13.958 112.093,13.283 111.501,12.889C110.907,12.493 110.156,12.433 109.508,12.728L103.131,15.635C102.616,15.352 102.1,15.072 101.578,14.802L100.451,7.886C100.337,7.185 99.867,6.59 99.209,6.318C98.553,6.045 97.8,6.134 97.223,6.549L91.538,10.64C90.978,10.462 90.416,10.291 89.848,10.128L87.396,3.569C87.147,2.9 86.571,2.41 85.872,2.271C85.173,2.134 84.455,2.366 83.97,2.885L79.185,8.019C78.608,7.955 78.026,7.897 77.446,7.849L73.751,1.879C73.378,1.274 72.716,0.906 72.004,0.906C71.292,0.906 70.631,1.274 70.258,1.879L66.563,7.849C65.982,7.897 65.4,7.955 64.823,8.019L60.037,2.885C59.552,2.366 58.832,2.134 58.135,2.271C57.436,2.411 56.86,2.9 56.611,3.569L54.159,10.128C53.591,10.291 53.029,10.463 52.468,10.64L46.784,6.549C46.206,6.132 45.454,6.044 44.796,6.318C44.14,6.59 43.669,7.185 43.555,7.886L42.427,14.802C41.905,15.072 41.389,15.351 40.874,15.635L34.498,12.728C33.85,12.432 33.094,12.493 32.505,12.889C31.912,13.283 31.566,13.958 31.593,14.669L31.838,21.687C31.384,22.05 30.934,22.421 30.49,22.795L23.655,21.184C22.961,21.023 22.233,21.229 21.73,21.732C21.225,22.236 21.02,22.963 21.183,23.657L22.793,30.493C22.419,30.936 22.05,31.384 21.687,31.838L14.669,31.593C13.961,31.573 13.285,31.912 12.889,32.505C12.493,33.094 12.433,33.85 12.728,34.499L15.635,40.877C15.352,41.389 15.072,41.905 14.802,42.43L7.887,43.555C7.185,43.669 6.593,44.139 6.32,44.796C6.048,45.455 6.136,46.206 6.551,46.784L10.641,52.465C10.463,53.026 10.291,53.59 10.128,54.158L3.569,56.61C2.903,56.858 2.413,57.434 2.274,58.134C2.136,58.832 2.368,59.551 2.888,60.037L8.019,64.822C7.955,65.399 7.898,65.981 7.849,66.561L1.88,70.256C1.276,70.629 0.907,71.29 0.907,72.003C0.907,72.716 1.276,73.376 1.88,73.748L7.849,77.443C7.898,78.025 7.955,78.605 8.019,79.182L2.888,83.968C2.368,84.453 2.136,85.173 2.274,85.87C2.413,86.57 2.903,87.144 3.569,87.394L10.128,89.846C10.291,90.414 10.463,90.978 10.641,91.539L6.551,97.222C6.135,97.8 6.047,98.552 6.32,99.208C6.593,99.867 7.186,100.337 7.889,100.45L14.802,101.574C15.072,102.099 15.35,102.615 15.635,103.13L12.728,109.505C12.432,110.153 12.493,110.907 12.889,111.499C13.286,112.093 13.961,112.44 14.669,112.411L21.684,112.165C22.05,112.622 22.418,113.069 22.793,113.513L21.183,120.35C21.02,121.043 21.225,121.767 21.73,122.271C22.232,122.778 22.961,122.98 23.655,122.817L30.49,121.207C30.934,121.585 31.384,121.952 31.838,122.313L31.593,129.332C31.566,130.043 31.912,130.717 32.505,131.113C33.094,131.509 33.85,131.568 34.498,131.272L40.874,128.366C41.388,128.652 41.904,128.929 42.427,129.199L43.555,136.111C43.669,136.815 44.139,137.41 44.796,137.68C45.452,137.953 46.206,137.865 46.784,137.451L52.465,133.358C53.026,133.536 53.59,133.709 54.158,133.872L56.61,140.429C56.858,141.094 57.434,141.587 58.134,141.723C58.832,141.864 59.551,141.631 60.036,141.109L64.822,135.978C65.399,136.045 65.981,136.1 66.562,136.152L70.257,142.121C70.629,142.723 71.291,143.094 72.003,143.094C72.715,143.094 73.376,142.724 73.75,142.121L77.445,136.152C78.026,136.1 78.606,136.045 79.184,135.978L83.968,141.109C84.453,141.631 85.173,141.864 85.87,141.723C86.57,141.586 87.146,141.094 87.394,140.429L89.846,133.872C90.414,133.709 90.978,133.536 91.539,133.358L97.222,137.451C97.799,137.865 98.552,137.953 99.208,137.68C99.865,137.41 100.335,136.814 100.45,136.111L101.577,129.199C102.099,128.929 102.615,128.648 103.13,128.366L109.507,131.272C110.155,131.568 110.909,131.509 111.499,131.113C112.092,130.717 112.437,130.044 112.411,129.332L112.166,122.313C112.62,121.95 113.07,121.585 113.513,121.207L120.347,122.817C121.042,122.98 121.77,122.778 122.271,122.271C122.776,121.767 122.981,121.043 122.818,120.35L121.209,113.513C121.584,113.069 121.953,112.622 122.314,112.165L129.332,112.411C130.04,112.44 130.717,112.093 131.112,111.499C131.509,110.907 131.57,110.153 131.272,109.505L128.366,103.13C128.65,102.615 128.929,102.099 129.198,101.574L136.113,100.45C136.816,100.337 137.409,99.867 137.68,99.208C137.952,98.552 137.866,97.8 137.449,97.222L133.359,91.539C133.536,90.978 133.708,90.414 133.872,89.846L140.43,87.394C141.097,87.144 141.589,86.57 141.725,85.87C141.866,85.172 141.632,84.453 141.11,83.968L135.981,79.182C136.043,78.605 136.1,78.024 136.151,77.443L142.12,73.748C142.724,73.376 143.093,72.715 143.093,72.003C143.093,71.291 142.726,70.629 142.121,70.256ZM102.169,119.774C99.89,119.282 98.44,117.035 98.929,114.749C99.417,112.465 101.663,111.012 103.941,111.504C106.22,111.991 107.673,114.242 107.184,116.525C106.694,118.807 104.448,120.262 102.169,119.774ZM100.141,106.056C98.061,105.61 96.015,106.934 95.57,109.018L93.451,118.907C86.911,121.876 79.648,123.525 72,123.525C64.176,123.525 56.756,121.794 50.1,118.699L47.982,108.81C47.536,106.728 45.49,105.403 43.412,105.85L34.681,107.724C33.06,106.056 31.552,104.279 30.167,102.403L72.649,102.403C73.13,102.403 73.451,102.316 73.451,101.879L73.451,86.851C73.451,86.414 73.13,86.327 72.649,86.327L60.225,86.327L60.225,76.801L73.663,76.801C74.89,76.801 80.222,77.151 81.926,83.967C82.46,86.063 83.633,92.881 84.434,95.064C85.233,97.512 88.485,102.403 91.951,102.403L113.12,102.403C113.361,102.403 113.617,102.376 113.888,102.327C112.419,104.323 110.808,106.211 109.073,107.976L100.141,106.056ZM41.384,119.568C39.104,120.059 36.86,118.606 36.37,116.322C35.882,114.034 37.331,111.789 39.611,111.297C41.89,110.809 44.136,112.263 44.625,114.547C45.113,116.829 43.662,119.078 41.384,119.568ZM25.268,54.217C26.213,56.352 25.252,58.853 23.12,59.797C20.989,60.744 18.494,59.78 17.549,57.645C16.603,55.509 17.565,53.012 19.697,52.066C21.83,51.12 24.322,52.082 25.268,54.217ZM20.315,65.959L29.41,61.917C31.353,61.055 32.23,58.778 31.368,56.831L29.494,52.595L36.861,52.595L36.861,85.802L21.998,85.802C20.709,81.27 20.017,76.487 20.017,71.544C20.017,69.657 20.119,67.791 20.315,65.959ZM60.227,62.734L60.227,52.946L77.771,52.946C78.677,52.946 84.169,53.993 84.169,58.1C84.169,61.51 79.957,62.732 76.493,62.732L60.227,62.732L60.227,62.734ZM123.984,71.544C123.984,72.842 123.936,74.127 123.841,75.403L118.508,75.403C117.974,75.403 117.759,75.754 117.759,76.277L117.759,78.726C117.759,84.491 114.509,85.745 111.66,86.064C108.947,86.37 105.939,84.929 105.568,83.269C103.968,74.267 101.301,72.345 97.09,69.024C102.316,65.705 107.754,60.809 107.754,54.255C107.754,47.179 102.903,42.722 99.596,40.536C94.957,37.478 89.821,36.865 88.435,36.865L33.276,36.865C40.756,28.517 50.893,22.604 62.359,20.452L68.861,27.273C70.33,28.812 72.765,28.869 74.303,27.398L81.577,20.44C96.821,23.278 109.727,32.767 117.164,45.785L112.184,57.034C111.324,58.98 112.202,61.257 114.143,62.12L123.731,66.379C123.897,68.081 123.984,69.801 123.984,71.544ZM68.863,14.65C70.548,13.036 73.22,13.1 74.832,14.787C76.442,16.478 76.381,19.153 74.693,20.766C73.008,22.38 70.336,22.317 68.723,20.627C67.115,18.939 67.176,16.264 68.863,14.65ZM118.285,54.422C119.229,52.288 121.723,51.325 123.855,52.272C125.986,53.218 126.948,55.717 126.003,57.851C125.059,59.987 122.564,60.95 120.432,60.003C118.303,59.058 117.341,56.559 118.285,54.422Z" style="fill-rule:nonzero;"/>
    </g>
</svg>
