<?xml version="1.0" encoding="UTF-8" standalone="no"?><!DOCTYPE svg PUBLIC "-//W3C//DTD SVG 1.1//EN" "http://www.w3.org/Graphics/SVG/1.1/DTD/svg11.dtd"><svg width="100%" height="100%" viewBox="0 0 2126 1241" version="1.1" xmlns="http://www.w3.org/2000/svg" xmlns:xlink="http://www.w3.org/1999/xlink" xml:space="preserve" xmlns:serif="http://www.serif.com/" style="fill-rule:evenodd;clip-rule:evenodd;stroke-linejoin:round;stroke-miterlimit:2;"><g><rect x="1417.15" y="0" width="708.83" height="1240.16" style="fill:#c2f0f0;"/><g transform="matrix(83.3333,0,0,83.3333,2044.88,1080.33)"></g><text x="1498.25px" y="1080.33px" style="font-family:'ArialMT', 'Arial', sans-serif;font-size:83.333px;">predict outputs</text><g transform="matrix(1,0,0,1,1246.66,321.348)"><text x="339.168px" y="183.761px" style="font-family:'ArialMT', 'Arial', sans-serif;font-size:83.333px;">r<tspan x="367.752px " y="183.761px ">e</tspan>quested</text><g transform="matrix(83.3333,0,0,83.3333,791.245,269.82)"></g><text x="258.571px" y="269.82px" style="font-family:'ArialMT', 'Arial', sans-serif;font-size:83.333px;">neighbors lists</text></g></g><g><rect x="0" y="0" width="1005.3" height="1240.16" style="fill:#f0a8a8;"/><g transform="matrix(83.3333,0,0,83.3333,782.821,389.424)"></g><text x="222.477px" y="389.424px" style="font-family:'ArialMT', 'Arial', sans-serif;font-size:83.333px;">create systems</text><g transform="matrix(83.3333,0,0,83.3333,857.039,724.282)"></g><text x="148.258px" y="724.282px" style="font-family:'ArialMT', 'Arial', sans-serif;font-size:83.333px;">compute neighbors</text><g transform="matrix(83.3333,0,0,83.3333,655.44,901.467)"></g><text x="349.858px" y="901.467px" style="font-family:'ArialMT', 'Arial', sans-serif;font-size:83.333px;">systems</text></g><g><path d="M1459.81,550.205l-0,-43.479l-435.818,-0l-0,-40.374l-62.114,62.113l62.114,62.114l-0,-40.374l435.818,0Z" style="fill:#888;"/><path d="M961.882,905.207l-0,-43.479l435.818,-0l0,-40.374l62.114,62.114l-62.114,62.113l0,-40.374l-435.818,0Z" style="fill:#888;"/><g><path d="M1232.59,0l-43.48,0l0,1178.04l-40.374,-0l62.114,62.113l62.114,-62.113l-40.374,-0l-0,-1178.04Z" style="fill:#ffcf57;"/><g><path d="M1269.9,321.135c-0,-16.27 -13.209,-29.478 -29.478,-29.478l-59.154,-0c-16.27,-0 -29.478,13.208 -29.478,29.478l-0,58.956c-0,16.269 13.208,29.478 29.478,29.478l59.154,-0c16.269,-0 29.478,-13.209 29.478,-29.478l-0,-58.956Z" style="fill:#9cde9c;"/><g transform="matrix(83.3333,0,0,83.3333,1234.02,378.285)"></g><text x="1187.67px" y="378.285px" style="font-family:'ArialMT', 'Arial', sans-serif;font-size:83.333px;">4</text></g><g><path d="M1269.9,498.102c-0,-16.27 -13.209,-29.478 -29.478,-29.478l-59.154,-0c-16.27,-0 -29.478,13.208 -29.478,29.478l-0,58.956c-0,16.269 13.208,29.478 29.478,29.478l59.154,0c16.269,0 29.478,-13.209 29.478,-29.478l-0,-58.956Z" style="fill:#9cde9c;"/><g transform="matrix(83.3333,0,0,83.3333,1234.02,555.252)"></g><text x="1187.67px" y="555.252px" style="font-family:'ArialMT', 'Arial', sans-serif;font-size:83.333px;">5</text></g><g><path d="M1269.9,675.325c-0,-16.27 -13.209,-29.478 -29.478,-29.478l-59.154,-0c-16.27,-0 -29.478,13.208 -29.478,29.478l-0,58.956c-0,16.269 13.208,29.478 29.478,29.478l59.154,0c16.269,0 29.478,-13.209 29.478,-29.478l-0,-58.956Z" style="fill:#9cde9c;"/><g transform="matrix(83.3333,0,0,83.3333,1234.02,732.475)"></g><text x="1187.67px" y="732.475px" style="font-family:'ArialMT', 'Arial', sans-serif;font-size:83.333px;">6</text></g><g><path d="M1269.9,852.509c-0,-16.269 -13.209,-29.478 -29.478,-29.478l-59.154,-0c-16.27,-0 -29.478,13.209 -29.478,29.478l-0,58.956c-0,16.27 13.208,29.478 29.478,29.478l59.154,0c16.269,0 29.478,-13.208 29.478,-29.478l-0,-58.956Z" style="fill:#9cde9c;"/><g transform="matrix(83.3333,0,0,83.3333,1234.02,909.66)"></g><text x="1187.67px" y="909.66px" style="font-family:'ArialMT', 'Arial', sans-serif;font-size:83.333px;">7</text></g><g><path d="M1269.9,1029.66c-0,-16.27 -13.209,-29.478 -29.478,-29.478l-59.154,-0c-16.27,-0 -29.478,13.208 -29.478,29.478l-0,58.956c-0,16.269 13.208,29.478 29.478,29.478l59.154,-0c16.269,-0 29.478,-13.209 29.478,-29.478l-0,-58.956Z" style="fill:#9cde9c;"/><g transform="matrix(83.3333,0,0,83.3333,1234.02,1086.81)"></g><text x="1187.67px" y="1086.81px" style="font-family:'ArialMT', 'Arial', sans-serif;font-size:83.333px;">8</text></g></g></g><g transform="matrix(125,0,0,125,1952.11,151.9)"></g><text x="1591.03px" y="151.9px" style="font-family:'Arial-BoldMT', 'Arial', sans-serif;font-weight:700;font-size:125px;">Model</text><g transform="matrix(125,0,0,125,714.429,151.9)"></g><text x="297.742px" y="151.9px" style="font-family:'Arial-BoldMT', 'Arial', sans-serif;font-weight:700;font-size:125px;">Engine</text></svg>