<?xml version="1.0" encoding="UTF-8" standalone="no"?>
<!DOCTYPE svg PUBLIC "-//W3C//DTD SVG 1.1//EN" "http://www.w3.org/Graphics/SVG/1.1/DTD/svg11.dtd">
<svg width="100%" height="100%" viewBox="0 0 1890 1772" version="1.1" xmlns="http://www.w3.org/2000/svg" xmlns:xlink="http://www.w3.org/1999/xlink" xml:space="preserve" xmlns:serif="http://www.serif.com/" style="fill-rule:evenodd;clip-rule:evenodd;stroke-linecap:square;stroke-miterlimit:1.5;">
    <g>
        <path d="M1840.72,315.201L995.104,315.201L391.562,663.656L391.562,1728.59L1237.18,1728.59L1840.72,1380.13L1839.6,1378.19L1840.72,1378.19L1840.72,315.201Z" style="fill:rgb(153,204,255);stroke:black;stroke-width:4.17px;"/>
        <path d="M1239.4,670.457L391.562,665.291" style="fill:none;stroke:black;stroke-width:4.17px;stroke-linejoin:round;"/>
        <path d="M1239.4,670.457L1235.57,1728.59" style="fill:none;stroke:black;stroke-width:4.17px;stroke-linecap:round;stroke-linejoin:round;"/>
        <path d="M1239.4,670.457L1840.72,315.201" style="fill:none;stroke:black;stroke-width:4.17px;stroke-linecap:round;stroke-linejoin:round;"/>
        <text x="643.684px" y="1255.09px" style="font-family:'Avenir-Medium', 'Avenir';font-weight:500;font-size:166.667px;">Data</text>
        <g>
            <rect x="992.017" y="32.068" width="848.702" height="224.409" style="fill:rgb(255,102,102);"/>
            <text x="1140.1px" y="169.239px" style="font-family:'Avenir-Medium', 'Avenir';font-weight:500;font-size:116.667px;">Pr<tspan x="1250.35px 1319.65px " y="169.239px 169.239px ">op</tspan>erties</text>
        </g>
        <g>
            <rect x="49.044" y="665.594" width="259.843" height="1062.99" style="fill:rgb(121,210,121);"/>
            <g transform="matrix(6.12323e-17,-1,1,6.12323e-17,-3767.18,2654.65)">
                <text x="1237.64px" y="3973.79px" style="font-family:'Avenir-Medium', 'Avenir';font-weight:500;font-size:116.667px;">Samples</text>
            </g>
        </g>
        <g>
            <path d="M969.169,260.036L851.058,55.463L196.425,433.416L314.535,637.989L969.169,260.036Z" style="fill:rgb(233,233,97);"/>
            <g transform="matrix(0.866025,-0.5,0.5,0.866025,-609.298,-710.822)">
                <text x="162.845px" y="1544.44px" style="font-family:'Avenir-Medium', 'Avenir';font-weight:500;font-size:116.667px;">Components</text>
            </g>
        </g>
    </g>
</svg>
